<svg id="レイヤー_1" data-name="レイヤー 1" xmlns="http://www.w3.org/2000/svg" viewBox="0 0 300 42"><defs><style>.cls-1{fill:#fff;}.cls-2{font-size:13.14px;font-family:HiraMinProN-W6-83pv-RKSJ-H, Hiragino Mincho ProN;letter-spacing:-0.16em;}.cls-3{letter-spacing:-0.2em;}.cls-4{letter-spacing:-0.22em;}.cls-5{letter-spacing:-0.2em;}.cls-6{letter-spacing:0.13em;}.cls-7{letter-spacing:-0.09em;}.cls-8{letter-spacing:-0.26em;}.cls-9{letter-spacing:-0.2em;}.cls-10{font-size:11.39px;font-family:HiraMinPro-W6-83pv-RKSJ-H, Hiragino Mincho Pro;letter-spacing:-0.14em;}.cls-11{letter-spacing:-0.1em;}</style></defs><rect class="cls-1" width="300" height="42"/><text class="cls-2" transform="translate(110.36 24.41)">仙<tspan class="cls-3" x="11.03" y="0">台</tspan><tspan class="cls-4" x="21.54" y="0">キャ</tspan><tspan class="cls-5" x="42.04" y="0">ンパ</tspan><tspan class="cls-6" x="63.05" y="0">ス</tspan><tspan class="cls-7" x="77.9" y="0">A</tspan><tspan x="87.05" y="0">チ</tspan><tspan class="cls-8" x="98.08" y="0">ー</tspan><tspan class="cls-9" x="107.81" y="0">ム</tspan></text><path d="M99.13,33.92l-6.93,5.5a.84.84,0,0,1-1.06,0l-6.93-5.5a2,2,0,0,1-.3-.28,31.46,31.46,0,0,1-8.28-21.11v-3A2.23,2.23,0,0,1,76.26,8l3.09-3.2a2.3,2.3,0,0,1,1-.6c3.28-1,6.67-2.62,10.16-2.68.7,0,.34,0,1,0C95,1.54,99.61,3.14,103,4.16a2.24,2.24,0,0,1,1,.6L107.08,8a2.23,2.23,0,0,1,.63,1.56v3a31.46,31.46,0,0,1-8.28,21.11A2,2,0,0,1,99.13,33.92Z"/><path class="cls-1" d="M97.8,31.16l-5.09,4.07a1.87,1.87,0,0,1-2.34,0l-5.09-4.07a1.88,1.88,0,0,1-.25-.24,26.72,26.72,0,0,1-7-17.86V10.52a1.92,1.92,0,0,1,.53-1.32l2.6-2.71A1.87,1.87,0,0,1,82,6a28.19,28.19,0,0,1,8.23-1.4H92A34.72,34.72,0,0,1,101.06,6a1.78,1.78,0,0,1,.81.51l2.59,2.7a1.92,1.92,0,0,1,.53,1.32v2.54a26.76,26.76,0,0,1-6.94,17.86A1.88,1.88,0,0,1,97.8,31.16Z"/><text class="cls-10" transform="translate(80.95 16.29)">自<tspan class="cls-11" x="9.79" y="0">己</tspan><tspan class="cls-11"><tspan x="0" y="10.95">防衛</tspan></tspan></text></svg>